<?xml version="1.0" encoding="UTF-8"?>
<svg id="Modo_de_aislamiento-2" data-name="Modo de aislamiento" xmlns="http://www.w3.org/2000/svg" version="1.1" xmlns:xlink="http://www.w3.org/1999/xlink" viewBox="0 0 2050.26 2072.92">
  <defs>
    <style>
      .cls-1 {
        fill: none;
      }

      .cls-1, .cls-2 {
        stroke-width: 0px;
      }

      .cls-3 {
        clip-path: url(#clippath);
      }

      .cls-2 {
        fill: #fff;
      }
    </style>
    <clipPath id="clippath">
      <circle class="cls-1" cx="1027.92" cy="1075.5" r="893.47"/>
    </clipPath>
  </defs>
  <g class="cls-3">
    <g>
      <polygon class="cls-2" points="1027.93 1075.49 891.13 1048.5 1008.37 1069.28 1027.93 1075.49"/>
      <polygon class="cls-2" points="1027.75 1075.41 1027.86 1075.47 1027.72 1075.45 1027.55 1075.39 1027.49 1075.35 1027.47 1075.35 1027.39 1075.32 1027.25 1075.3 1027.25 1075.26 1027.16 1075.26 1027.13 1075.26 1027.1 1075.26 1026.94 1075.18 1026.86 1075.16 1026.74 1075.14 1026.68 1075.1 1026.66 1075.1 1026.6 1075.08 1026.49 1075.06 1026.46 1075.02 1026.32 1075 1026.21 1074.96 1026.19 1074.93 1026.1 1074.93 1026.1 1074.92 1025.87 1074.85 1025.71 1074.79 1025.24 1074.63 1025.13 1074.63 1025.04 1074.57 1024.82 1074.53 1024.8 1074.53 1024.35 1074.38 1024.35 1074.34 1023.04 1073.97 1022.99 1073.93 1021.88 1073.56 1021.76 1073.54 1020.12 1073.01 1019.67 1072.87 1019.64 1072.87 1014.14 1071.13 1014 1071.1 1008.21 1069.26 5.58 752.06 5.58 620.68 1009.88 1067.48 1017.67 1070.92 1020.7 1072.29 1022.15 1072.93 1022.4 1073.05 1022.42 1073.07 1022.45 1073.07 1023.15 1073.38 1023.37 1073.46 1023.85 1073.69 1024.77 1074.1 1024.8 1074.1 1024.98 1074.18 1025.15 1074.26 1025.27 1074.32 1025.48 1074.4 1025.53 1074.42 1026.02 1074.67 1026.15 1074.71 1026.24 1074.73 1026.27 1074.77 1026.29 1074.77 1026.32 1074.79 1026.44 1074.85 1026.52 1074.87 1026.55 1074.87 1026.66 1074.93 1026.68 1074.93 1026.68 1074.96 1026.71 1074.96 1026.77 1075 1026.86 1075.02 1027.13 1075.14 1027.16 1075.16 1027.25 1075.18 1027.3 1075.22 1027.39 1075.26 1027.41 1075.26 1027.55 1075.32 1027.58 1075.32 1027.75 1075.41"/>
      <polygon class="cls-2" points="1027.88 1075.47 1027.88 1075.49 1027.86 1075.47 1027.88 1075.47"/>
      <polygon class="cls-2" points="1026.71 1075.55 1026.71 1075.59 1026.6 1075.53 1026.71 1075.55"/>
      <polygon class="cls-2" points="1026.6 1075.47 1026.71 1075.55 1026.6 1075.53 1026.6 1075.49 1026.49 1075.45 1026.35 1075.35 1026.32 1075.32 1026.29 1075.32 1026.21 1075.26 1026.19 1075.26 1026.1 1075.22 1026.08 1075.18 1026.05 1075.18 1026.05 1075.16 1025.9 1075.1 1025.77 1075.02 1025.18 1074.67 1025.13 1074.63 1025.04 1074.57 1024.98 1074.55 1024.88 1074.49 1024.85 1074.49 1024.57 1074.32 1024.51 1074.26 1023.63 1073.75 1023.15 1073.48 1023.01 1073.4 1022.45 1073.07 1022.42 1073.07 1022.4 1073.05 1022.2 1072.93 1021.29 1072.38 1019.32 1071.25 1015.97 1069.28 1015.94 1069.26 5.58 477.85 5.58 312.5 1019.84 1070.43 1021.42 1071.6 1022.84 1072.66 1023.15 1072.87 1023.46 1073.13 1023.68 1073.3 1023.91 1073.46 1024.13 1073.6 1024.77 1074.1 1024.8 1074.1 1024.8 1074.14 1024.93 1074.22 1025.08 1074.32 1025.15 1074.38 1025.32 1074.53 1025.35 1074.53 1025.68 1074.77 1025.71 1074.79 1025.85 1074.92 1026 1075.02 1026.08 1075.08 1026.1 1075.08 1026.15 1075.14 1026.19 1075.14 1026.32 1075.26 1026.35 1075.26 1026.52 1075.41 1026.55 1075.45 1026.6 1075.47"/>
      <polygon class="cls-2" points="1026.71 1075.59 1026.71 1075.55 1026.74 1075.59 1026.71 1075.59"/>
      <polygon class="cls-2" points="1027.75 1075.32 1027.63 1075.22 1027.47 1075.08 1027.41 1075.02 1027.39 1075.02 1027.33 1074.93 1027.1 1074.73 1027.1 1074.71 1026.88 1074.53 1026.8 1074.46 1026.74 1074.38 1026.57 1074.24 1026.44 1074.1 1026.4 1074.1 1026.4 1074.07 1026.38 1074.05 1026.35 1074.05 1026.32 1073.99 1026.29 1073.99 1026.29 1073.97 1026.24 1073.93 1026.21 1073.93 1026.19 1073.87 1026.19 1073.85 1026.15 1073.83 1026.12 1073.83 1026 1073.71 1026 1073.69 1025.85 1073.54 1025.65 1073.38 1025.63 1073.38 1025.63 1073.34 1025.53 1073.26 1025.37 1073.13 1025.37 1073.11 1025.3 1073.05 1025.04 1072.81 1024.32 1072.13 1024.07 1071.88 1024.04 1071.88 1023.73 1071.58 1023.71 1071.58 5.58 117.37 5.58 53.17 156.93 53.17 1023.89 1070.76 1023.91 1070.8 1024.85 1071.9 1025.15 1072.27 1025.61 1072.76 1025.63 1072.81 1025.74 1072.97 1025.87 1073.13 1025.97 1073.21 1026.05 1073.3 1026.08 1073.34 1026.12 1073.4 1026.24 1073.52 1026.35 1073.67 1026.46 1073.79 1026.49 1073.83 1026.52 1073.87 1026.57 1073.91 1026.66 1074.05 1026.68 1074.05 1026.71 1074.1 1026.8 1074.18 1026.8 1074.22 1026.86 1074.26 1026.91 1074.32 1026.96 1074.38 1027.02 1074.42 1027.05 1074.46 1027.08 1074.53 1027.08 1074.55 1027.1 1074.55 1027.1 1074.57 1027.16 1074.61 1027.39 1074.87 1027.44 1074.96 1027.49 1075.02 1027.52 1075.02 1027.66 1075.18 1027.75 1075.32"/>
      <polygon class="cls-2" points="1027.8 1075.35 1027.83 1075.41 1027.77 1075.39 1027.77 1075.35 1027.8 1075.35"/>
      <polygon class="cls-2" points="1027.83 1075.41 1027.88 1075.47 1027.86 1075.47 1027.83 1075.41"/>
      <rect class="cls-2" x="1027.88" y="1075.47" width=".03" height=".02"/>
      <polygon class="cls-2" points="1026.68 1074.96 1026.68 1074.93 1026.71 1074.96 1026.86 1075.14 1026.68 1074.96"/>
      <polygon class="cls-2" points="1026.86 1075.14 1026.71 1074.96 1026.68 1074.93 1026.62 1074.85 1026.62 1074.81 1026.57 1074.73 1026.55 1074.71 1026.49 1074.61 1026.46 1074.61 1026.46 1074.57 1026.4 1074.53 1026.32 1074.38 1026.32 1074.34 1026.27 1074.32 1026.27 1074.26 1026.24 1074.24 1026.21 1074.24 1026.12 1074.1 1026.08 1073.99 1026.02 1073.93 1026.02 1073.91 1025.9 1073.77 1025.8 1073.56 1025.65 1073.38 1025.63 1073.38 1025.63 1073.34 1025.57 1073.26 1025.55 1073.21 1025.48 1073.13 1025.4 1073.01 1025.27 1072.81 1025.24 1072.81 1024.88 1072.21 1024.85 1072.21 1024.6 1071.82 1023.91 1070.8 1023.89 1070.76 335.69 53.17 491.56 53.17 767.09 579.25 1025.21 1072.03 1025.35 1072.29 1025.61 1072.76 1025.63 1072.81 1025.71 1072.97 1025.8 1073.17 1025.82 1073.19 1025.85 1073.26 1025.87 1073.26 1025.9 1073.34 1025.97 1073.48 1026.08 1073.67 1026.15 1073.83 1026.19 1073.85 1026.19 1073.87 1026.21 1073.93 1026.27 1074.01 1026.27 1074.07 1026.29 1074.1 1026.35 1074.18 1026.35 1074.22 1026.38 1074.24 1026.38 1074.26 1026.46 1074.4 1026.46 1074.42 1026.49 1074.42 1026.49 1074.49 1026.55 1074.55 1026.6 1074.67 1026.6 1074.71 1026.66 1074.79 1026.77 1075 1026.86 1075.14"/>
      <polygon class="cls-2" points="1027.83 1075.1 1027.86 1075.26 1027.8 1075.1 1027.77 1075.08 1027.75 1075.02 1027.69 1074.87 1027.66 1074.73 1027.63 1074.73 1027.63 1074.71 1027.58 1074.61 1027.58 1074.55 1027.55 1074.53 1027.52 1074.42 1027.49 1074.34 1027.44 1074.18 1027.33 1073.91 1027.3 1073.87 1027.13 1073.42 1027.1 1073.32 1027.05 1073.26 1027.05 1073.21 1027 1073.11 1026.96 1073.01 1026.94 1072.97 1026.91 1072.85 1026.88 1072.76 1026.86 1072.72 1026.8 1072.58 1026.77 1072.54 1026.77 1072.46 1026.74 1072.46 1025.97 1070.43 1025.97 1070.41 628.71 53.17 755.86 53.17 1026.29 1069.28 1026.29 1069.32 1027 1071.99 1027.16 1072.6 1027.19 1072.62 1027.19 1072.68 1027.21 1072.74 1027.21 1072.83 1027.25 1072.85 1027.25 1072.87 1027.27 1072.97 1027.27 1073.01 1027.3 1073.07 1027.49 1073.85 1027.49 1073.87 1027.52 1073.87 1027.52 1073.91 1027.58 1074.14 1027.6 1074.18 1027.6 1074.24 1027.63 1074.38 1027.66 1074.49 1027.69 1074.57 1027.72 1074.67 1027.75 1074.73 1027.77 1074.81 1027.8 1074.93 1027.83 1075.1"/>
      <polygon class="cls-2" points="1027.88 1075.26 1027.88 1075.32 1027.86 1075.26 1027.86 1075.26 1027.88 1075.26"/>
      <polygon class="cls-2" points="1027.93 1075.45 1027.93 1075.47 1027.91 1075.47 1027.88 1075.32 1027.91 1075.35 1027.93 1075.45"/>
      <polygon class="cls-2" points="1027.1 1074.55 1027.1 1074.71 1027.08 1074.55 1027.08 1074.53 1027.05 1074.3 1027.02 1074.22 1027.02 1074.1 1026.96 1073.83 1026.94 1073.6 1026.94 1073.56 1026.91 1073.42 1026.88 1073.19 1026.86 1073.11 1026.86 1073.01 1026.83 1072.85 1026.83 1072.81 1026.8 1072.72 1026.8 1072.58 1026.77 1072.54 1026.77 1072.46 1026.29 1069.32 1026.29 1069.28 873.65 53.17 989.35 53.17 1027 1071.99 1027.02 1072.54 1027.02 1072.81 1027.05 1072.91 1027.05 1073.4 1027.08 1073.6 1027.08 1074.32 1027.1 1074.55"/>
      <polygon class="cls-2" points="1220.8 53.17 1029.14 1069.2 1029.11 1069.24 1028.6 1071.92 1028.43 1072.85 1028.31 1073.62 1028.31 1073.67 1028.19 1074.14 1028.19 1074.16 1028.16 1074.26 1028.16 1074.38 1028.13 1074.49 1028.11 1074.55 1028.09 1074.73 1028.02 1075.02 1028.02 1075.08 1027.99 1075.22 1027.99 1075.26 1027.93 1075.41 1027.96 1075.22 1027.96 1075.02 1027.99 1074.71 1027.99 1074.61 1028.02 1074.53 1028.02 1074.26 1028.06 1074.18 1028.06 1073.97 1028.09 1073.69 1028.13 1073.05 1028.19 1072.29 1028.35 1070.06 1028.35 1070.04 1104.01 53.17 1220.8 53.17"/>
      <polygon class="cls-2" points="1027.58 1074.22 1027.6 1074.22 1027.6 1074.24 1027.55 1074.34 1027.58 1074.22"/>
      <polygon class="cls-2" points="1470.96 53.17 1069.28 978.23 1028.6 1071.92 1028.13 1073.05 1027.88 1073.62 1027.75 1073.97 1027.72 1073.97 1027.72 1073.99 1027.69 1074.01 1027.6 1074.22 1027.6 1074.18 1027.66 1073.99 1027.66 1073.97 1027.69 1073.93 1027.86 1073.34 1028.19 1072.29 1029.11 1069.24 1029.14 1069.2 1340.59 53.17 1470.96 53.17"/>
      <polygon class="cls-2" points="1775.29 53.17 1030.52 1071.6 1030.5 1071.64 1028.92 1073.79 1028.88 1073.83 1028.56 1074.32 1028.5 1074.38 1028.46 1074.42 1028.38 1074.55 1028.33 1074.61 1028.19 1074.79 1028.02 1075.02 1027.99 1075.06 1027.96 1075.1 1027.93 1075.14 1027.93 1075.16 1027.91 1075.16 1027.88 1075.26 1027.86 1075.26 1027.86 1075.26 1027.83 1075.3 1027.8 1075.35 1027.77 1075.35 1027.77 1075.39 1027.75 1075.41 1027.72 1075.45 1027.63 1075.55 1027.55 1075.65 1027.52 1075.71 1027.49 1075.75 1027.41 1075.86 1027.3 1076.02 1027.16 1076.18 1027.16 1076.23 1026.96 1076.47 1026.74 1076.78 1026.94 1076.41 1027.13 1076.1 1027.16 1076.04 1027.27 1075.86 1027.36 1075.69 1027.52 1075.41 1027.55 1075.39 1027.55 1075.32 1027.58 1075.32 1027.6 1075.26 1027.63 1075.22 1027.66 1075.18 1027.72 1075.08 1027.75 1075.06 1027.75 1075.02 1027.8 1074.93 1027.83 1074.85 1027.91 1074.73 1027.93 1074.69 1027.99 1074.61 1028.02 1074.53 1028.13 1074.34 1028.13 1074.32 1028.16 1074.32 1028.16 1074.26 1028.19 1074.26 1028.21 1074.18 1028.33 1073.99 1028.35 1073.97 1029.44 1072.05 1611.78 53.17 1775.29 53.17"/>
      <polygon class="cls-2" points="2050.26 53.17 2050.26 184.85 1028.92 1073.79 1028.88 1073.83 1028.41 1074.24 1028.31 1074.34 1028.21 1074.4 1028.13 1074.49 1028.09 1074.53 1027.99 1074.61 1027.93 1074.69 1027.91 1074.69 1027.77 1074.79 1027.77 1074.81 1027.72 1074.85 1027.69 1074.87 1027.63 1074.93 1027.6 1074.93 1027.52 1075.02 1027.49 1075.06 1027.47 1075.08 1027.41 1075.14 1027.33 1075.18 1027.3 1075.22 1027.25 1075.26 1027.25 1075.3 1027.19 1075.32 1027.16 1075.32 1027.13 1075.35 1027.08 1075.41 1027.08 1075.45 1026.91 1075.55 1026.91 1075.53 1027.05 1075.39 1027.1 1075.32 1027.13 1075.32 1027.13 1075.3 1027.16 1075.26 1027.19 1075.26 1027.19 1075.26 1027.21 1075.18 1027.25 1075.18 1027.3 1075.14 1027.36 1075.08 1027.39 1075.02 1027.41 1075.02 1027.41 1075 1027.44 1074.96 1027.52 1074.87 1027.58 1074.81 1027.58 1074.79 1027.6 1074.79 1027.6 1074.77 1027.63 1074.73 1027.66 1074.73 1027.69 1074.69 1027.72 1074.67 1027.77 1074.61 1027.88 1074.46 1027.91 1074.46 1028.02 1074.32 1028.06 1074.3 1028.11 1074.22 1028.19 1074.16 1028.19 1074.14 1028.33 1073.99 1028.35 1073.97 1030.5 1071.64 1030.52 1071.6 1964.97 53.17 2050.26 53.17"/>
      <polygon class="cls-2" points="2050.26 369.05 2050.26 527.17 1032.28 1073.79 1032.25 1073.83 1030.45 1074.77 1030.05 1075 1029.89 1075.08 1029.86 1075.1 1029.72 1075.16 1029.44 1075.32 1029.41 1075.35 1028.66 1075.75 1028.6 1075.78 1028.41 1075.88 1028.35 1075.92 1028.24 1075.98 1028.09 1076.04 1027.96 1076.1 1027.91 1076.16 1027.86 1076.16 1027.55 1076.33 1027.55 1076.35 1027.36 1076.43 1027.27 1076.49 1027.16 1076.55 1027.02 1076.63 1026.74 1076.78 1027 1076.61 1027.16 1076.49 1027.25 1076.41 1027.36 1076.35 1027.49 1076.24 1027.52 1076.24 1027.66 1076.14 1027.96 1075.94 1028.13 1075.8 1028.21 1075.78 1028.21 1075.75 1028.31 1075.69 1028.46 1075.59 1028.72 1075.41 1029.05 1075.18 1029.14 1075.1 1029.33 1075 1029.36 1074.96 1029.37 1074.96 1029.37 1074.93 1029.41 1074.93 1029.6 1074.79 1029.81 1074.67 1031.14 1073.75 1031.17 1073.71 2050.26 369.05"/>
      <polygon class="cls-2" points="2050.26 665.06 2050.26 793.07 1560.28 928.48 1030.75 1074.85 1030.13 1075.02 1029.89 1075.08 1029.86 1075.1 1029.69 1075.14 1029.33 1075.26 1029.22 1075.26 1028.72 1075.41 1028.38 1075.49 1028.35 1075.49 1028.19 1075.55 1028.13 1075.59 1028.06 1075.61 1028.02 1075.61 1027.75 1075.65 1027.49 1075.75 1027.39 1075.78 1027.52 1075.71 1027.72 1075.63 1027.96 1075.53 1027.99 1075.53 1028.13 1075.47 1028.24 1075.41 1028.31 1075.41 1028.33 1075.39 1028.94 1075.14 1029.11 1075.08 1029.33 1075 1029.36 1074.96 1029.41 1074.96 1029.41 1074.93 1029.72 1074.81 1030.03 1074.71 1032.25 1073.83 1032.28 1073.79 2050.26 665.06"/>
      <polygon class="cls-2" points="2050.26 912.18 2050.26 1028.36 1037.87 1076.24 1034.09 1076.43 1034.06 1076.43 1033.39 1076.47 1033 1076.47 1032.06 1076.51 1032.03 1076.51 1031.09 1076.57 1030.31 1076.61 1029.86 1076.63 1029.36 1076.67 1028.97 1076.67 1028.6 1076.7 1027.75 1076.72 1027.63 1076.72 1027.41 1076.74 1027.05 1076.74 1026.74 1076.78 1027.02 1076.72 1027.19 1076.7 1027.36 1076.67 1027.41 1076.67 1027.6 1076.63 1027.69 1076.63 1028.46 1076.49 1028.5 1076.49 1028.8 1076.43 1028.92 1076.41 1029.11 1076.39 1029.14 1076.39 1029.47 1076.33 1029.86 1076.27 1030.55 1076.16 1031.05 1076.08 1031.22 1076.04 1031.25 1076.04 1032.03 1075.92 1032.16 1075.92 1032.34 1075.88 1034.34 1075.55 1034.36 1075.55 2050.26 912.18"/>
      <polygon class="cls-2" points="2050.26 1141.39 2050.26 1257.9 1124.91 1093.41 1040.21 1078.35 1040.15 1078.35 1035.98 1077.62 1033.5 1077.17 1033 1077.09 1032.97 1077.09 1031.39 1076.8 1030.31 1076.61 1029.69 1076.49 1029.14 1076.39 1029.11 1076.39 1028.83 1076.35 1028.83 1076.33 1028.72 1076.33 1028.5 1076.27 1028.38 1076.27 1028.24 1076.24 1027.86 1076.16 1027.66 1076.14 1027.91 1076.16 1028.16 1076.16 1028.33 1076.18 1028.69 1076.18 1028.78 1076.23 1029 1076.23 1029.36 1076.24 1029.86 1076.27 1030.77 1076.33 1031.75 1076.39 1031.83 1076.41 1033 1076.47 1033.03 1076.47 1033.47 1076.49 1034.54 1076.57 1034.57 1076.57 1041.9 1077.04 1041.96 1077.04 2050.26 1141.39"/>
      <polygon class="cls-2" points="1153.22 1114.19 1048.75 1083.27 1044.26 1081.96 1038.31 1080.2 1038.29 1080.2 1034.39 1079.03 1032.28 1078.42 1032.25 1078.4 1030.47 1077.88 1030.45 1077.86 1030.39 1077.86 1029.6 1077.64 1029.6 1077.62 1029.36 1077.56 1029 1077.43 1027.96 1077.15 1027.75 1077.09 1027.47 1077 1027.44 1076.96 1027.19 1076.92 1027.08 1076.88 1027.08 1076.86 1026.74 1076.78 1027.05 1076.82 1027.19 1076.86 1027.44 1076.88 1027.69 1076.94 1027.88 1076.96 1028.85 1077.15 1028.85 1077.17 1029.05 1077.19 1029.33 1077.23 1029.33 1077.25 1029.89 1077.33 1029.95 1077.33 1031.05 1077.56 1031.09 1077.56 1032.81 1077.86 1034.95 1078.21 1036.51 1078.5 1038.95 1078.95 1045.85 1080.18 1153.22 1114.19"/>
      <polygon class="cls-2" points="1153.22 1114.19 1048.75 1083.27 1044.26 1081.96 1038.31 1080.2 1038.29 1080.2 1034.39 1079.03 1032.28 1078.42 1032.25 1078.4 1030.47 1077.88 1030.45 1077.86 1030.39 1077.86 1029.6 1077.64 1029.6 1077.62 1029.36 1077.56 1029 1077.43 1027.96 1077.15 1027.75 1077.09 1027.47 1077 1027.44 1076.96 1027.19 1076.92 1027.08 1076.88 1027.08 1076.86 1026.74 1076.78 1027.05 1076.82 1027.19 1076.86 1027.44 1076.88 1027.69 1076.94 1027.88 1076.96 1028.85 1077.15 1028.85 1077.17 1029.05 1077.19 1029.33 1077.23 1029.33 1077.25 1029.89 1077.33 1029.95 1077.33 1031.05 1077.56 1031.09 1077.56 1032.81 1077.86 1034.95 1078.21 1036.51 1078.5 1038.95 1078.95 1045.85 1080.18 1153.22 1114.19"/>
      <polygon class="cls-2" points="1163.09 1100.97 1045.94 1080.18 1045.85 1080.18 1040.21 1078.35 1040.15 1078.35 1034.57 1076.57 1034.54 1076.57 1034.08 1076.43 1034.06 1076.43 1032.45 1075.92 1032.42 1075.92 1032.34 1075.88 1031.39 1075.59 1031.25 1075.53 1031.22 1075.53 1029.86 1075.1 1029.41 1074.96 1029.41 1074.93 1029.37 1074.93 1029.27 1074.92 1029.08 1074.85 1029 1074.81 1028.58 1074.69 1028.33 1074.61 1028.11 1074.55 1028.09 1074.53 1028.02 1074.53 1027.91 1074.46 1027.88 1074.46 1027.75 1074.42 1027.72 1074.4 1027.63 1074.38 1027.55 1074.34 1027.49 1074.34 1027.36 1074.3 1027.3 1074.26 1027.1 1074.22 1027.08 1074.22 1027.05 1074.18 1026.96 1074.18 1026.83 1074.14 1026.71 1074.1 1026.65 1074.07 1026.49 1074.01 1026.35 1073.99 1026.35 1073.97 1026.49 1073.99 1026.65 1074.05 1026.68 1074.05 1026.86 1074.07 1026.94 1074.1 1027.05 1074.1 1027.08 1074.14 1027.16 1074.14 1027.25 1074.16 1027.44 1074.18 1027.58 1074.22 1027.6 1074.22 1027.82 1074.26 1027.88 1074.26 1028.02 1074.3 1028.05 1074.3 1028.09 1074.32 1028.16 1074.32 1028.31 1074.34 1028.35 1074.38 1028.5 1074.38 1028.92 1074.49 1029.3 1074.55 1029.52 1074.61 1029.81 1074.67 1030.03 1074.71 1030.45 1074.77 1030.75 1074.85 1032.48 1075.18 1034.34 1075.55 1034.36 1075.55 1035.42 1075.78 1037.87 1076.24 1041.9 1077.04 1041.95 1077.04 1124.91 1093.41 1163.09 1100.97"/>
      <polygon class="cls-2" points="1026.35 1073.97 1026.35 1073.99 1026.32 1073.99 1026.29 1073.97 1026.35 1073.97"/>
      <polygon class="cls-2" points="2050.26 1397.94 2050.26 1529.5 1044.27 1081.96 1036.51 1078.5 1033.5 1077.17 1032.06 1076.51 1032.03 1076.51 1031.83 1076.41 1031.75 1076.39 1031.05 1076.08 1030.84 1076 1030.36 1075.78 1029.52 1075.41 1029.41 1075.35 1029.22 1075.26 1029.05 1075.18 1028.94 1075.14 1028.72 1075.06 1028.19 1074.79 1028.09 1074.73 1027.99 1074.71 1027.93 1074.69 1027.91 1074.69 1027.77 1074.61 1027.69 1074.57 1027.6 1074.55 1027.58 1074.55 1027.55 1074.53 1027.49 1074.49 1027.39 1074.42 1027.08 1074.32 1027.05 1074.3 1027 1074.26 1026.96 1074.26 1026.91 1074.24 1026.83 1074.18 1026.8 1074.18 1026.66 1074.14 1026.62 1074.14 1026.46 1074.05 1026.35 1073.99 1026.49 1074.01 1026.66 1074.07 1026.71 1074.1 1026.83 1074.14 1026.96 1074.18 1027.05 1074.18 1027.08 1074.22 1027.1 1074.22 1027.3 1074.26 1027.36 1074.3 1027.49 1074.34 1027.55 1074.34 1027.63 1074.38 1027.72 1074.4 1027.75 1074.42 1027.88 1074.46 1027.91 1074.46 1028.02 1074.53 1028.09 1074.53 1028.11 1074.55 1028.33 1074.61 1028.58 1074.69 1029 1074.81 1029.08 1074.85 1029.27 1074.92 1029.37 1074.93 1029.41 1074.93 1029.41 1074.96 1029.86 1075.1 1031.22 1075.53 1031.25 1075.53 1031.39 1075.59 1032.34 1075.88 1032.42 1075.92 1032.45 1075.92 1034.09 1076.43 1034.54 1076.57 1034.57 1076.57 1040.15 1078.35 1040.21 1078.35 1045.85 1080.18 1045.94 1080.18 1156.8 1115.26 2050.26 1397.94"/>
      <polygon class="cls-2" points="1027.49 1073.85 1027.49 1073.87 1027.41 1073.79 1027.49 1073.85"/>
      <polygon class="cls-2" points="2050.26 1672.53 2050.26 1838.15 1034.39 1079.03 1032.81 1077.86 1031.39 1076.8 1031.09 1076.57 1030.77 1076.33 1030.55 1076.16 1030.33 1076 1030.11 1075.84 1029.52 1075.41 1029.44 1075.32 1029.33 1075.26 1029.14 1075.1 1029.11 1075.08 1028.92 1074.93 1028.88 1074.92 1028.58 1074.69 1028.38 1074.55 1028.21 1074.4 1028.16 1074.38 1028.13 1074.34 1028.09 1074.32 1028.06 1074.3 1028.02 1074.3 1028.02 1074.26 1027.88 1074.18 1027.88 1074.16 1027.69 1074.01 1027.66 1073.99 1027.6 1073.97 1027.52 1073.91 1027.49 1073.87 1027.6 1073.93 1027.72 1073.99 1027.88 1074.1 1027.91 1074.1 1027.93 1074.14 1028.06 1074.18 1028.11 1074.22 1028.16 1074.26 1028.19 1074.26 1028.31 1074.34 1028.35 1074.38 1028.46 1074.42 1029.05 1074.77 1029.14 1074.81 1029.27 1074.92 1029.36 1074.96 1029.41 1074.96 1029.69 1075.14 1029.72 1075.16 1030.6 1075.69 1030.64 1075.69 1031.09 1075.98 1031.22 1076.04 1031.25 1076.04 1031.83 1076.41 1032.03 1076.51 1032.06 1076.51 1032.97 1077.09 1033 1077.09 1034.95 1078.21 1038.29 1080.2 1038.31 1080.2 2050.26 1672.53"/>
      <polygon class="cls-2" points="1026.38 1074.05 1026.44 1074.07 1026.4 1074.07 1026.38 1074.05"/>
      <polygon class="cls-2" points="1026.38 1074.05 1026.44 1074.07 1026.4 1074.07 1026.38 1074.05"/>
      <polygon class="cls-2" points="1026.29 1073.97 1026.32 1073.99 1026.29 1073.99 1026.29 1073.97"/>
      <polygon class="cls-2" points="1026.35 1073.99 1026.38 1074.05 1026.35 1074.05 1026.32 1073.99 1026.35 1073.99"/>
      <rect class="cls-2" x="1026.4" y="1074.07" width=".04" height=".02"/>
      <polygon class="cls-2" points="2050.26 2033.65 2050.26 2097.83 1898.59 2097.83 1030.33 1078.7 1030.31 1078.66 1029.36 1077.56 1029.05 1077.19 1028.6 1076.7 1028.58 1076.67 1028.46 1076.49 1028.33 1076.33 1028.24 1076.24 1028.16 1076.16 1028.13 1076.1 1028.09 1076.04 1027.96 1075.94 1027.86 1075.8 1027.75 1075.65 1027.72 1075.63 1027.69 1075.61 1027.63 1075.55 1027.52 1075.41 1027.49 1075.35 1027.47 1075.35 1027.41 1075.26 1027.41 1075.26 1027.33 1075.18 1027.3 1075.14 1027.25 1075.08 1027.19 1075 1027.13 1074.96 1027.1 1074.92 1027.05 1074.85 1026.83 1074.61 1026.77 1074.49 1026.71 1074.42 1026.68 1074.42 1026.55 1074.26 1026.44 1074.1 1026.57 1074.24 1026.74 1074.38 1026.83 1074.42 1026.88 1074.53 1027.1 1074.71 1027.1 1074.73 1027.33 1074.93 1027.41 1075 1027.41 1075.02 1027.47 1075.08 1027.63 1075.22 1027.75 1075.32 1027.77 1075.35 1027.8 1075.35 1027.83 1075.41 1027.86 1075.47 1027.91 1075.47 1027.91 1075.49 1027.93 1075.49 1027.96 1075.53 1028.02 1075.59 1028.02 1075.61 1028.06 1075.61 1028.06 1075.63 1028.09 1075.63 1028.21 1075.75 1028.21 1075.78 1028.35 1075.92 1028.56 1076.08 1028.58 1076.08 1028.58 1076.1 1028.69 1076.18 1028.83 1076.33 1028.83 1076.35 1028.92 1076.41 1029.16 1076.67 1029.89 1077.33 1030.13 1077.58 1030.17 1077.58 1030.45 1077.86 1030.47 1077.88 2050.26 2033.65"/>
      <polygon class="cls-2" points="1719.58 2097.83 1563.45 2097.83 1283.76 1563.84 1029 1077.43 1028.85 1077.15 1028.6 1076.7 1028.58 1076.67 1028.5 1076.49 1028.41 1076.29 1028.38 1076.27 1028.33 1076.18 1028.31 1076.1 1028.24 1075.98 1028.13 1075.8 1028.06 1075.63 1028.06 1075.61 1028.02 1075.61 1028.02 1075.59 1027.99 1075.53 1027.96 1075.45 1027.93 1075.45 1027.93 1075.41 1027.88 1075.32 1027.86 1075.26 1027.86 1075.26 1027.77 1075.08 1027.75 1075.06 1027.75 1075.02 1027.66 1074.92 1027.6 1074.79 1027.6 1074.77 1027.55 1074.67 1027.44 1074.46 1027.36 1074.3 1027.49 1074.49 1027.58 1074.61 1027.63 1074.71 1027.63 1074.73 1027.66 1074.73 1027.72 1074.85 1027.8 1074.93 1027.93 1075.14 1027.93 1075.18 1027.96 1075.18 1027.96 1075.22 1027.99 1075.22 1027.99 1075.26 1028.09 1075.39 1028.13 1075.47 1028.19 1075.53 1028.19 1075.55 1028.31 1075.69 1028.41 1075.88 1028.56 1076.08 1028.58 1076.08 1028.58 1076.1 1028.64 1076.18 1028.66 1076.24 1028.72 1076.33 1028.8 1076.43 1028.97 1076.67 1029.33 1077.25 1029.6 1077.62 1030.31 1078.66 1030.33 1078.7 1719.58 2097.83"/>
      <polygon class="cls-2" points="1026.35 1074.05 1026.38 1074.16 1026.32 1073.99 1026.35 1074.05"/>
      <polygon class="cls-2" points="1026.35 1074.05 1026.38 1074.16 1026.32 1073.99 1026.35 1074.05"/>
      <polygon class="cls-2" points="1426.08 2097.83 1298.77 2097.83 1027.88 1079.93 1027.88 1079.91 1027.21 1077.37 1027.08 1076.86 1027.05 1076.82 1027.05 1076.74 1027.02 1076.72 1027.02 1076.63 1027 1076.61 1027 1076.55 1026.96 1076.47 1026.94 1076.41 1026.94 1076.33 1026.71 1075.59 1026.71 1075.55 1026.62 1075.26 1026.62 1075.18 1026.6 1075.08 1026.57 1074.96 1026.55 1074.87 1026.52 1074.85 1026.52 1074.73 1026.46 1074.61 1026.46 1074.57 1026.44 1074.49 1026.4 1074.38 1026.38 1074.24 1026.35 1074.22 1026.35 1074.18 1026.29 1074.01 1026.29 1073.99 1026.32 1073.99 1026.38 1074.16 1026.46 1074.4 1026.46 1074.42 1026.49 1074.42 1026.49 1074.49 1026.52 1074.57 1026.57 1074.69 1026.6 1074.71 1026.62 1074.81 1026.62 1074.85 1026.66 1074.93 1026.68 1074.93 1026.68 1074.96 1026.74 1075.1 1026.74 1075.14 1026.8 1075.26 1026.91 1075.53 1026.91 1075.55 1027.08 1075.98 1027.08 1076 1027.13 1076.1 1027.16 1076.16 1027.16 1076.23 1027.21 1076.35 1027.25 1076.41 1027.27 1076.49 1027.33 1076.61 1027.36 1076.67 1027.39 1076.74 1027.41 1076.86 1027.44 1076.88 1027.47 1077 1028.21 1078.87 1028.21 1078.89 1426.08 2097.83"/>
      <polygon class="cls-2" points="1180.78 2097.83 1064.92 2097.83 1027.21 1077.37 1027.19 1076.92 1027.19 1076.67 1027.16 1076.55 1027.16 1076.04 1027.13 1075.84 1027.13 1075.14 1027.1 1074.92 1027.1 1074.73 1027.13 1074.92 1027.13 1074.96 1027.16 1075.16 1027.19 1075.26 1027.19 1075.35 1027.25 1075.63 1027.27 1075.8 1027.27 1075.86 1027.3 1076.02 1027.33 1076.24 1027.36 1076.35 1027.36 1076.43 1027.39 1076.61 1027.41 1076.67 1027.41 1076.86 1027.44 1076.88 1027.44 1076.96 1027.88 1079.91 1027.88 1079.93 1180.78 2097.83"/>
      <polygon class="cls-2" points="1026.29 1074.01 1026.29 1074.1 1026.27 1074.26 1026.27 1074.46 1026.24 1074.73 1026.24 1074.85 1026.21 1074.93 1026.21 1075.26 1026.19 1075.26 1026.19 1075.47 1026.15 1075.69 1026.12 1076.33 1026.08 1077.03 1026.08 1077.04 1025.9 1079.13 1025.9 1079.17 950.08 2097.83 833.13 2097.83 1025.15 1080.03 1025.15 1079.99 1025.65 1077.41 1025.82 1076.49 1025.94 1075.84 1025.97 1075.8 1026.05 1075.3 1026.05 1075.26 1026.08 1075.18 1026.08 1075.08 1026.1 1075.08 1026.1 1074.92 1026.12 1074.92 1026.15 1074.71 1026.21 1074.4 1026.21 1074.38 1026.24 1074.24 1026.27 1074.07 1026.29 1074.01"/>
      <polygon class="cls-2" points="1026.62 1075.18 1026.66 1075.1 1026.66 1075.26 1026.62 1075.26 1026.62 1075.18"/>
      <polygon class="cls-2" points="1026.68 1075.02 1026.68 1075.1 1026.66 1075.1 1026.66 1075.08 1026.68 1075.02"/>
      <polygon class="cls-2" points="1026.62 1075.18 1026.62 1075.26 1026.55 1075.45 1026.55 1075.49 1026.38 1076.04 1026.08 1077.03 1026.08 1077.04 1025.15 1079.99 1025.15 1080.03 713.14 2097.83 582.58 2097.83 984.92 1171.21 1025.65 1077.41 1026.12 1076.33 1026.35 1075.78 1026.49 1075.49 1026.49 1075.45 1026.52 1075.41 1026.6 1075.22 1026.62 1075.18"/>
      <polygon class="cls-2" points="1027.47 1072.68 1027.27 1073.01 1027.1 1073.32 1027.05 1073.4 1026.94 1073.56 1026.94 1073.6 1026.91 1073.67 1026.91 1073.69 1026.88 1073.69 1026.86 1073.77 1026.68 1074.05 1026.66 1074.07 1026.66 1074.14 1026.62 1074.14 1026.6 1074.18 1026.57 1074.24 1026.55 1074.26 1026.52 1074.34 1026.46 1074.4 1026.46 1074.42 1026.44 1074.49 1026.4 1074.53 1026.38 1074.61 1026.27 1074.77 1026.24 1074.79 1026.24 1074.85 1026.19 1074.93 1026.1 1075.08 1026.08 1075.1 1026.08 1075.14 1026.05 1075.16 1026.05 1075.18 1026 1075.26 1025.87 1075.47 1025.85 1075.49 1024.77 1077.39 1024.74 1077.43 1024.71 1077.47 441.53 2097.83 277.78 2097.83 1023.68 1077.86 1025.32 1075.61 1025.35 1075.61 1025.68 1075.14 1025.74 1075.06 1025.77 1075.02 1025.85 1074.92 1025.87 1074.85 1026.02 1074.67 1026.21 1074.4 1026.21 1074.38 1026.27 1074.32 1026.27 1074.3 1026.29 1074.3 1026.29 1074.26 1026.35 1074.22 1026.35 1074.18 1026.38 1074.16 1026.4 1074.1 1026.44 1074.1 1026.44 1074.07 1026.46 1074.05 1026.49 1074.01 1026.49 1073.99 1026.57 1073.91 1026.62 1073.83 1026.66 1073.77 1026.68 1073.77 1026.71 1073.71 1026.8 1073.6 1026.88 1073.48 1026.91 1073.42 1027.05 1073.26 1027.27 1072.97 1027.47 1072.68"/>
      <polygon class="cls-2" points="1027.41 1073.79 1027.33 1073.91 1027.19 1074.05 1027.19 1074.07 1027.1 1074.14 1027.08 1074.16 1027.05 1074.18 1027.02 1074.22 1027 1074.26 1026.96 1074.26 1026.91 1074.32 1026.86 1074.38 1026.83 1074.42 1026.8 1074.46 1026.68 1074.57 1026.66 1074.63 1026.6 1074.67 1026.6 1074.69 1026.57 1074.69 1026.55 1074.71 1026.52 1074.73 1026.52 1074.77 1026.44 1074.85 1026.32 1074.96 1026.32 1075 1026.19 1075.14 1026.15 1075.14 1026.1 1075.22 1026.05 1075.26 1026.05 1075.3 1025.87 1075.47 1025.85 1075.49 1023.68 1077.86 87.81 2097.83 5.58 2097.83 5.58 1963.17 1025.32 1075.61 1025.35 1075.61 1025.82 1075.18 1025.9 1075.1 1026 1075.02 1026.1 1074.93 1026.1 1074.92 1026.12 1074.92 1026.24 1074.81 1026.24 1074.79 1026.27 1074.77 1026.29 1074.77 1026.32 1074.73 1026.44 1074.67 1026.46 1074.61 1026.49 1074.61 1026.52 1074.57 1026.55 1074.55 1026.57 1074.53 1026.6 1074.53 1026.68 1074.42 1026.71 1074.42 1026.74 1074.38 1026.8 1074.32 1026.86 1074.26 1026.91 1074.24 1026.96 1074.18 1027.02 1074.14 1027.05 1074.1 1027.08 1074.07 1027.16 1074.01 1027.3 1073.87 1027.41 1073.79"/>
      <polygon class="cls-2" points="1027.47 1072.68 1027.25 1072.85 1027.05 1072.99 1026.96 1073.01 1026.86 1073.11 1026.74 1073.19 1026.71 1073.21 1026.55 1073.32 1026.24 1073.52 1026.08 1073.67 1026 1073.69 1026 1073.71 1025.9 1073.77 1025.74 1073.87 1025.46 1074.07 1025.15 1074.26 1025.08 1074.32 1024.88 1074.49 1024.82 1074.49 1024.82 1074.53 1024.8 1074.53 1024.62 1074.67 1024.4 1074.79 1022.99 1075.8 1022.96 1075.8 5.58 1779.29 5.58 1621.43 1021.85 1075.69 1021.88 1075.69 1023.77 1074.67 1024.18 1074.46 1024.3 1074.38 1024.35 1074.34 1024.38 1074.34 1024.51 1074.26 1024.8 1074.14 1024.8 1074.1 1025.55 1073.71 1025.61 1073.69 1025.8 1073.56 1025.97 1073.48 1026.12 1073.4 1026.24 1073.34 1026.29 1073.3 1026.35 1073.3 1026.68 1073.11 1026.86 1073.01 1026.94 1072.97 1027.05 1072.91 1027.21 1072.83 1027.47 1072.68"/>
      <polygon class="cls-2" points="1026.91 1073.69 1026.83 1073.71 1026.83 1073.69 1026.91 1073.69"/>
      <polygon class="cls-2" points="1026.71 1073.71 1026.83 1073.69 1026.83 1073.71 1026.68 1073.77 1026.49 1073.83 1026.24 1073.93 1026.21 1073.93 1026.08 1073.99 1025.97 1074.05 1025.85 1074.1 1025.27 1074.32 1025.15 1074.38 1024.88 1074.49 1024.82 1074.49 1024.82 1074.53 1024.8 1074.53 1024.54 1074.63 1024.21 1074.73 1021.88 1075.69 1021.85 1075.69 5.58 1483.73 5.58 1355.92 492.73 1221.3 1023.49 1074.61 1024.13 1074.42 1024.3 1074.38 1024.35 1074.38 1024.38 1074.34 1024.57 1074.32 1024.93 1074.22 1024.98 1074.18 1025.46 1074.07 1025.82 1073.97 1025.85 1073.97 1026.02 1073.91 1026.08 1073.91 1026.19 1073.87 1026.19 1073.85 1026.46 1073.79 1026.71 1073.71"/>
      <polygon class="cls-2" points="1026.91 1073.67 1026.91 1073.69 1026.83 1073.69 1026.91 1073.67"/>
      <polygon class="cls-2" points="1027.47 1072.68 1027.21 1072.74 1027.02 1072.76 1026.88 1072.76 1026.83 1072.81 1026.6 1072.83 1026.55 1072.83 1025.74 1072.97 1025.71 1072.97 1025.4 1073.01 1025.3 1073.05 1025.11 1073.07 1025.08 1073.07 1024.74 1073.13 1024.35 1073.19 1023.68 1073.3 1023.15 1073.38 1023.01 1073.4 1022.18 1073.54 1022.1 1073.54 1021.9 1073.56 1021.88 1073.56 1019.86 1073.91 5.58 1236.99 5.58 1121.01 1016.36 1073.21 1020.12 1073.01 1020.17 1073.01 1020.9 1072.99 1021.2 1072.99 1022.15 1072.93 1022.2 1072.93 1023.15 1072.87 1023.91 1072.85 1024.35 1072.83 1024.85 1072.81 1025.24 1072.81 1025.61 1072.76 1026.49 1072.74 1026.57 1072.74 1026.8 1072.72 1027.02 1072.72 1027.19 1072.68 1027.47 1072.68"/>
      <polygon class="cls-2" points="1026.55 1073.32 1026.29 1073.3 1026.05 1073.3 1025.87 1073.26 1025.53 1073.26 1025.43 1073.26 1025.21 1073.26 1024.85 1073.21 1024.35 1073.19 1023.46 1073.13 1022.45 1073.07 1022.42 1073.07 1022.4 1073.05 1021.2 1072.99 1021.17 1072.99 1020.79 1072.97 1019.73 1072.87 1019.64 1072.87 1012.36 1072.42 1012.31 1072.42 5.58 1008.15 5.58 891.87 929.71 1056.09 1014 1071.1 1014.14 1071.13 1018.35 1071.88 1020.7 1072.29 1021.29 1072.38 1022.84 1072.66 1023.91 1072.85 1024.51 1072.97 1025.08 1073.07 1025.11 1073.07 1025.37 1073.11 1025.37 1073.13 1025.48 1073.13 1025.71 1073.19 1025.82 1073.19 1025.97 1073.21 1026.35 1073.3 1026.55 1073.32"/>
      <polygon class="cls-2" points="1027.48 1072.68 1008.37 1069.28 900.94 1035.23 1027.48 1072.68"/>
    </g>
  </g>
</svg>